<svg width="24" height="24" viewBox="0 0 24 24" fill="none" xmlns="http://www.w3.org/2000/svg">
<path d="M18.26 13.0701C18.8509 13.0701 19.33 12.591 19.33 12.0001C19.33 11.4091 18.8509 10.9301 18.26 10.9301C17.6691 10.9301 17.19 11.4091 17.19 12.0001C17.19 12.591 17.6691 13.0701 18.26 13.0701Z" fill="white"/>
<path d="M19.94 16.2801V16.5801C19.94 17.4712 19.586 18.3258 18.9559 18.9559C18.3258 19.5861 17.4711 19.9401 16.58 19.9401H7.11C6.21887 19.9401 5.36424 19.5861 4.73412 18.9559C4.104 18.3258 3.75 17.4712 3.75 16.5801V7.42006C3.75 6.52893 4.104 5.6743 4.73412 5.04418C5.36424 4.41406 6.21887 4.06006 7.11 4.06006H16.58C17.4711 4.06006 18.3258 4.41406 18.9559 5.04418C19.586 5.6743 19.94 6.52893 19.94 7.42006V7.72006M16.74 7.72006H19.79C20.032 7.71873 20.2719 7.76542 20.4957 7.85742C20.7195 7.94942 20.9229 8.0849 21.094 8.25603C21.2652 8.42715 21.4006 8.63052 21.4926 8.85436C21.5846 9.07819 21.6313 9.31806 21.63 9.56006V14.4401C21.6313 14.6821 21.5846 14.9219 21.4926 15.1458C21.4006 15.3696 21.2652 15.573 21.094 15.7441C20.9229 15.9152 20.7195 16.0507 20.4957 16.1427C20.2719 16.2347 20.032 16.2814 19.79 16.2801H16.74C16.498 16.2814 16.2581 16.2347 16.0343 16.1427C15.8105 16.0507 15.6071 15.9152 15.436 15.7441C15.2648 15.573 15.1294 15.3696 15.0374 15.1458C14.9454 14.9219 14.8987 14.6821 14.9 14.4401V9.56006C14.8987 9.31806 14.9454 9.07819 15.0374 8.85436C15.1294 8.63052 15.2648 8.42715 15.436 8.25603C15.6071 8.0849 15.8105 7.94942 16.0343 7.85742C16.2581 7.76542 16.498 7.71873 16.74 7.72006Z" stroke="white" stroke-width="1.2"/>
</svg>
